CMC_leg_t_102_r_0.8196_states
version=1
nRows=10
nColumns=49
inDegrees=yes

# SIMM Motion File Header:
name CMC_leg_t_102_r_0.8196_states
datacolumns 49
datarows 10
otherdata 1
range 0.34947748 0.35524867
endheader
time	/jointset/bb/crank_angle/value	/jointset/bb/crank_angle/speed	/jointset/spindle/pedal_angle_r/value	/jointset/spindle/pedal_angle_r/speed	/jointset/ground_pelvis/pelvis_tilt/value	/jointset/ground_pelvis/pelvis_tilt/speed	/jointset/ground_pelvis/pelvis_list/value	/jointset/ground_pelvis/pelvis_list/speed	/jointset/ground_pelvis/pelvis_rotation/value	/jointset/ground_pelvis/pelvis_rotation/speed	/jointset/ground_pelvis/pelvis_tx/value	/jointset/ground_pelvis/pelvis_tx/speed	/jointset/ground_pelvis/pelvis_ty/value	/jointset/ground_pelvis/pelvis_ty/speed	/jointset/ground_pelvis/pelvis_tz/value	/jointset/ground_pelvis/pelvis_tz/speed	/jointset/hip_r/hip_angle_r/value	/jointset/hip_r/hip_angle_r/speed	/jointset/hip_r/hip_adduction_r/value	/jointset/hip_r/hip_adduction_r/speed	/jointset/hip_r/hip_rotation_r/value	/jointset/hip_r/hip_rotation_r/speed	/jointset/knee_r/knee_angle_r/value	/jointset/knee_r/knee_angle_r/speed	/jointset/knee_r/tib_tx_r/value	/jointset/knee_r/tib_tx_r/speed	/jointset/knee_r/tib_ty_r/value	/jointset/knee_r/tib_ty_r/speed	/jointset/tib_pat_r/pat_angle_r/value	/jointset/tib_pat_r/pat_angle_r/speed	/jointset/tib_pat_r/pat_tx_r/value	/jointset/tib_pat_r/pat_tx_r/speed	/jointset/tib_pat_r/pat_ty_r/value	/jointset/tib_pat_r/pat_ty_r/speed	/jointset/ankle_r/ankle_angle_r/value	/jointset/ankle_r/ankle_angle_r/speed	/jointset/subtalar_r/subtalar_angle_r/value	/jointset/subtalar_r/subtalar_angle_r/speed	/jointset/mtp_r/mtp_angle_r/value	/jointset/mtp_r/mtp_angle_r/speed	/forceset/bifemlh_r/activation	/forceset/bifemlh_r/fiber_length	/forceset/bifemsh_r/activation	/forceset/bifemsh_r/fiber_length	/forceset/glut_max2_r/activation	/forceset/glut_max2_r/fiber_length	/forceset/vas_int_r/activation	/forceset/vas_int_r/fiber_length
      0.34947748	   -106.30135680	   -624.17239493	    113.81214363	    697.84569442	      0.00000000	      0.00000000	     -0.00000000	     -0.00000000	      0.00000000	     -0.00000000	      0.00000000	      0.00000000	      0.00000000	      0.00000000	      0.00000000	      0.00000000	     58.28665440	   -264.73586381	      4.37184905	      0.80466509	     -0.18996033	     25.86965599	    -71.98007234	    338.97851635	      0.00513869	      0.00427555	     -0.47978916	      0.11220414	     17.52981519	     -1.37915052	      0.03910359	      0.11000141	     -0.02254821	     -0.00721495	     21.65307594	     -1.58631227	      0.00000000	      0.00000000	   -133.50075148	   -215.69739749	      0.07116197	      0.13011886	      0.02026979	      0.15950955	      0.02026979	      0.14357244	      0.02026979	      0.13769756
      0.34995994	   -106.60275453	   -625.24533440	    114.14904456	    698.74670921	      0.00000000	      0.00000000	     -0.00000000	     -0.00000000	      0.00000000	     -0.00000000	      0.00000000	      0.00000000	      0.00000000	      0.00000000	      0.00000000	      0.00000000	     58.15879559	   -265.29045092	      4.37223445	      0.79296530	     -0.17747521	     25.88623589	    -71.81650848	    339.05914552	      0.00514066	      0.00390830	     -0.47973504	      0.11214110	     17.52913922	     -1.42317617	      0.03915663	      0.10987758	     -0.02255172	     -0.00735352	     21.65238468	     -1.27913183	      0.00000000	      0.00000000	   -133.60407016	   -212.59802066	      0.07199971	      0.13004127	      0.02026807	      0.15956334	      0.02026807	      0.14349372	      0.02026807	      0.13759322
      0.35019095	   -106.74724980	   -625.76082807	    114.31050947	    699.17856643	      0.00000000	      0.00000000	     -0.00000000	     -0.00000000	      0.00000000	     -0.00000000	      0.00000000	      0.00000000	      0.00000000	      0.00000000	      0.00000000	      0.00000000	     58.09748127	   -265.55434790	      4.37241698	      0.78735247	     -0.17149442	     25.89405137	    -71.73817947	    339.09457654	      0.00514154	      0.00373232	     -0.47970914	      0.11210958	     17.52880799	     -1.44456903	      0.03918200	      0.10981741	     -0.02255343	     -0.00741919	     21.65210620	     -1.13182744	      0.00000000	      0.00000000	   -133.65300966	   -211.10804729	      0.07206370	      0.13000439	      0.02032972	      0.15959983	      0.02026725	      0.14345592	      0.02026725	      0.13754318
      0.35042195	   -106.89186430	   -626.27771742	    114.47207421	    699.61098075	      0.00000000	      0.00000000	     -0.00000000	     -0.00000000	      0.00000000	     -0.00000000	      0.00000000	      0.00000000	      0.00000000	      0.00000000	      0.00000000	      0.00000000	     58.03610609	   -265.81727321	      4.37259822	      0.78173306	     -0.16551183	     25.90179563	    -71.65984251	    339.12806178	      0.00514239	      0.00355626	     -0.47968325	      0.11207724	     17.52847179	     -1.46616454	      0.03920737	      0.10975672	     -0.02255515	     -0.00748442	     21.65186177	     -0.98438121	      0.00000000	      0.00000000	   -133.70160453	   -209.61422691	      0.07206355	      0.12996784	      0.02040088	      0.15963769	      0.02026643	      0.14341804	      0.02026643	      0.13749310
      0.35157699	   -107.61673707	   -628.88432672	    115.28140001	    701.78236797	      0.00000000	      0.00000000	     -0.00000000	     -0.00000000	     -0.00000000	     -0.00000000	      0.00000000	      0.00000000	      0.00000000	      0.00000000	      0.00000000	      0.00000000	     57.72832535	   -267.11744376	      4.37348488	      0.75354154	     -0.13557250	     25.93944478	    -71.26805412	    339.26621715	      0.00514598	      0.00267489	     -0.47955389	      0.11190314	     17.52671471	     -1.57716799	      0.03933396	      0.10944541	     -0.02256398	     -0.00780391	     21.65115141	     -0.24508846	      0.00000000	      0.00000000	   -133.93937808	   -202.08711094	      0.07206277	      0.12978946	      0.02071357	      0.15982547	      0.02026238	      0.14322756	      0.02026238	      0.13724199
      0.35213083	   -107.96539006	   -630.14713530	    115.67036739	    702.82856952	      0.00000000	      0.00000000	     -0.00000000	     -0.00000000	     -0.00000000	     -0.00000000	      0.00000000	      0.00000000	      0.00000000	      0.00000000	      0.00000000	      0.00000000	     57.58021356	   -267.73196923	      4.37389847	      0.73996968	     -0.12120126	     25.95681650	    -71.08013971	    339.31451960	      0.00514735	      0.00225173	     -0.47949194	      0.11181215	     17.52582602	     -1.63217028	      0.03939453	      0.10929131	     -0.02256834	     -0.00795313	     21.65111413	      0.11057746	      0.00000000	      0.00000000	   -134.05029473	   -198.44316990	      0.07206240	      0.12970629	      0.02084095	      0.15993004	      0.02026046	      0.14313557	      0.02026046	      0.13712115
      0.35299205	   -108.50893920	   -632.12964832	    116.27636282	    704.46379080	      0.00000000	      0.00000000	     -0.00000000	     -0.00000000	     -0.00000000	     -0.00000000	      0.00000000	      0.00000000	      0.00000000	      0.00000000	      0.00000000	      0.00000000	     57.34922897	   -268.67650122	      4.37452664	      0.71880250	     -0.09883532	     25.98297205	    -70.78788977	    339.36675663	      0.00514900	      0.00159321	     -0.47939571	      0.11166111	     17.52438275	     -1.71996607	      0.03948855	      0.10904565	     -0.02257529	     -0.00817995	     21.65144800	      0.66505834	      0.00000000	      0.00000000	   -134.21874318	   -192.73191530	      0.07206184	      0.12957965	      0.02101436	      0.16006653	      0.02025751	      0.14299169	      0.02025751	      0.13693276
      0.35365195	   -108.92658247	   -633.66266966	    116.74164854	    705.72153551	      0.00000000	      0.00000000	     -0.00000000	     -0.00000000	     -0.00000000	     -0.00000000	      0.00000000	      0.00000000	      0.00000000	      0.00000000	      0.00000000	      0.00000000	     57.17169520	   -269.39010738	      4.37499560	      0.70253248	     -0.08168295	     26.00219292	    -70.56393644	    339.38643967	      0.00514989	      0.00108832	     -0.47932207	      0.11153705	     17.52322504	     -1.78908318	      0.03956045	      0.10885200	     -0.02258074	     -0.00834939	     21.65202736	      1.09102778	      0.00000000	      0.00000000	   -134.34447119	   -188.31819436	      0.07206141	      0.12948461	      0.02112942	      0.16020718	      0.02025526	      0.14288077	      0.02025526	      0.13678800
      0.35445031	   -109.43322116	   -635.53710840	    117.30567982	    707.25220444	      0.00000000	      0.00000000	     -0.00000000	     -0.00000000	     -0.00000000	     -0.00000000	      0.00000000	      0.00000000	      0.00000000	      0.00000000	      0.00000000	      0.00000000	     56.95628335	   -270.24274599	      4.37554860	      0.68279659	     -0.06091480	     26.02457397	    -70.29298120	    339.38767161	      0.00515051	      0.00047730	     -0.47923308	      0.11137766	     17.52176263	     -1.87482801	      0.03964725	      0.10861182	     -0.02258749	     -0.00854929	     21.65310452	      1.60759029	      0.00000000	      0.00000000	   -134.49267135	   -182.93455038	      0.07206089	      0.12937170	      0.02125078	      0.16031799	      0.02025257	      0.14274577	      0.02025257	      0.13661240
      0.35524867	   -109.94136393	   -637.42948899	    117.87093575	    708.78809935	      0.00000000	      0.00000000	     -0.00000000	     -0.00000000	     -0.00000000	     -0.00000000	      0.00000000	      0.00000000	      0.00000000	      0.00000000	      0.00000000	      0.00000000	     56.74019608	   -271.08157921	      4.37608583	      0.66300376	     -0.04012923	     26.04577395	    -70.02203572	    339.36123856	      0.00515065	     -0.00013377	     -0.47914423	      0.11120719	     17.52023085	     -1.96285832	      0.03973387	      0.10836431	     -0.02259439	     -0.00874349	     21.65459457	      2.12537553	      0.00000000	      0.00000000	   -134.63655400	   -177.50203792	      0.07206039	      0.12926082	      0.02135519	      0.16053784	      0.02024992	      0.14260991	      0.02024992	      0.13643630
